<svg width="200" height="200" viewBox="0 0 200 200" fill="none" xmlns="http://www.w3.org/2000/svg">
<g clip-path="url(#clip0_2001_2)">
<rect width="200" height="200" rx="40" fill="#5A4ED1"/>
<rect x="45" y="47" width="45" height="45" rx="22.5" fill="white"/>
<rect x="105" y="47" width="45" height="45" rx="22.5" fill="white"/>
<path d="M95.28 119.28C96.08 116.933 96.88 114.8 97.68 112.88C98.5333 110.96 99.5467 109.307 100.72 107.92C101.893 106.533 103.28 105.44 104.88 104.64C106.533 103.893 108.533 103.52 110.88 103.52C114.507 103.52 117.547 104.64 120 106.88C122.507 109.12 124.213 112.32 125.12 116.48H131.6C131.707 116.96 131.84 117.707 132 118.72C132.16 119.733 132.24 120.773 132.24 121.84C132.24 123.92 131.867 125.547 131.12 126.72C130.427 127.893 128.907 128.48 126.56 128.48H125.52C125.093 131.787 124.24 134.427 122.96 136.4C121.68 138.427 119.92 139.44 117.68 139.44C116.293 139.44 115.093 139.12 114.08 138.48C113.12 137.84 112.293 137.067 111.6 136.16C112.347 134.987 112.987 133.413 113.52 131.44C114.107 129.467 114.4 127.307 114.4 124.96C114.4 122.56 114.053 120.8 113.36 119.68C112.72 118.56 111.893 118 110.88 118C110.08 118 109.413 118.347 108.88 119.04C108.4 119.733 107.947 120.773 107.52 122.16L106.16 126.4C104.56 131.413 102.507 135.253 100 137.92C97.5467 140.64 94.1867 142 89.92 142C86.2933 142 83.2 140.853 80.64 138.56C78.1333 136.267 76.4267 132.907 75.52 128.48H69.12C69.0133 128 68.88 127.253 68.72 126.24C68.56 125.227 68.48 124.187 68.48 123.12C68.48 121.04 68.8533 119.413 69.6 118.24C70.2933 117.067 71.8133 116.48 74.16 116.48H74.96C75.1733 114.56 75.52 112.8 76 111.2C76.48 109.653 77.0933 108.293 77.84 107.12C78.5867 106 79.4667 105.12 80.48 104.48C81.4933 103.84 82.64 103.52 83.92 103.52C85.4667 103.52 86.7733 103.973 87.84 104.88C88.96 105.787 89.8133 106.773 90.4 107.84C89.2267 109.333 88.2133 111.147 87.36 113.28C86.5067 115.467 86.08 117.84 86.08 120.4C86.08 123.013 86.48 124.853 87.28 125.92C88.08 126.987 89.0133 127.52 90.08 127.52C91.1467 127.52 91.9467 127.093 92.48 126.24C93.0667 125.387 93.6267 124.187 94.16 122.64L95.28 119.28Z" fill="white"/>
</g>
<defs>
<clipPath id="clip0_2001_2">
<rect width="200" height="200" rx="40" fill="white"/>
</clipPath>
</defs>
</svg>
