<svg width="200" height="200" viewBox="0 0 200 200" fill="none" xmlns="http://www.w3.org/2000/svg">
<g clip-path="url(#clip0_2001_2)">
<rect width="200" height="200" rx="40" fill="#5A4ED1"/>
<rect x="55" y="47" width="35" height="35" rx="17.5" fill="white"/>
<rect x="110" y="47" width="35" height="35" rx="17.5" fill="white"/>
<path d="M90.56 120.56C92.16 115.867 93.76 111.6 95.36 107.76C97.0667 103.92 99.0933 100.613 101.44 97.84C103.787 95.0667 106.56 92.88 109.76 91.28C113.067 89.7867 117.067 89.04 121.76 89.04C129.013 89.04 135.093 91.28 140 95.76C145.013 100.24 148.427 106.64 150.24 114.96H163.2C163.413 115.92 163.68 117.413 164 119.44C164.32 121.467 164.48 123.547 164.48 125.68C164.48 129.84 163.733 133.093 162.24 135.44C160.853 137.787 157.813 138.96 153.12 138.96H151.04C150.187 145.573 148.48 150.853 145.92 154.8C143.36 158.853 139.84 160.88 135.36 160.88C132.587 160.88 130.187 160.24 128.16 158.96C126.24 157.68 124.587 156.133 123.2 154.32C124.693 151.973 125.973 148.827 127.04 144.88C128.213 140.933 128.8 136.613 128.8 131.92C128.8 127.12 128.107 123.6 126.72 121.36C125.44 119.12 123.787 118 121.76 118C120.16 118 118.827 118.693 117.76 120.08C116.8 121.467 115.893 123.547 115.04 126.32L112.32 134.8C109.12 144.827 105.013 152.507 100 157.84C95.0933 163.28 88.3733 166 79.84 166C72.5867 166 66.4 163.707 61.28 159.12C56.2667 154.533 52.8533 147.813 51.04 138.96H38.24C38.0267 138 37.76 136.507 37.44 134.48C37.12 132.453 36.96 130.373 36.96 128.24C36.96 124.08 37.7067 120.827 39.2 118.48C40.5867 116.133 43.6267 114.96 48.32 114.96H49.92C50.3467 111.12 51.04 107.6 52 104.4C52.96 101.307 54.1867 98.5867 55.68 96.24C57.1733 94 58.9333 92.24 60.96 90.96C62.9867 89.68 65.28 89.04 67.84 89.04C70.9333 89.04 73.5467 89.9467 75.68 91.76C77.92 93.5733 79.6267 95.5467 80.8 97.68C78.4533 100.667 76.4267 104.293 74.72 108.56C73.0133 112.933 72.16 117.68 72.16 122.8C72.16 128.027 72.96 131.707 74.56 133.84C76.16 135.973 78.0267 137.04 80.16 137.04C82.2933 137.04 83.8933 136.187 84.96 134.48C86.1333 132.773 87.2533 130.373 88.32 127.28L90.56 120.56Z" fill="white"/>
</g>
<defs>
<clipPath id="clip0_2001_2">
<rect width="200" height="200" rx="40" fill="white"/>
</clipPath>
</defs>
</svg>
